# xmcd
#
# Track frame offsets: 
#        150
#        16970
#        44347
#        59625
#        73275
#        93405
#        117370
#        143812
#        160567
#        184840
#
# Disc length: 2757 seconds
#
# Revision: 2
# Processed by: cddbd v1.5.2PL0 Copyright (c) Steve Scherf et al.
# Submitted via: ExactAudioCopy v0.99pb4
#
DISCID=8c0ac30a
DTITLE=Willie Willis - Can´t Help But Have The Blues
DYEAR=1998
DGENRE=Blues
TTITLE0=Willie's Back
TTITLE1=If You Wanna Get Funky
TTITLE2=Willie's Blues
TTITLE3=Deep Ellum Boogie
TTITLE4=I Love A Woman
TTITLE5=Laundromat Blues
TTITLE6=Dallas Shuffle
TTITLE7=What's On Your Mind
TTITLE8=Can´t Help But Have The Blues
TTITLE9=Brothers Together
EXTD=ID3G:   0
EXTT0=
EXTT1=
EXTT2=
EXTT3=
EXTT4=
EXTT5=
EXTT6=
EXTT7=
EXTT8=
EXTT9=
PLAYORDER=
